solid csg.js
facet normal -1 0 0
outer loop
vertex 2 -6 -0.9999
vertex 2 -6 0.00009999999999998899
vertex 2 1 0.00009999999999998899
endloop
endfacet
facet normal -1 0 0
outer loop
vertex 2 -6 -0.9999
vertex 2 1 0.00009999999999998899
vertex 2 1 -0.9999
endloop
endfacet
facet normal 1 0 0
outer loop
vertex 15 -6 -0.9999
vertex 15 1 -0.9999
vertex 15 1 0.00009999999999998899
endloop
endfacet
facet normal 1 0 0
outer loop
vertex 15 -6 -0.9999
vertex 15 1 0.00009999999999998899
vertex 15 -6 0.00009999999999998899
endloop
endfacet
facet normal 0 -1 0
outer loop
vertex 2 -6 -0.9999
vertex 15 -6 -0.9999
vertex 15 -6 0.00009999999999998899
endloop
endfacet
facet normal 0 -1 0
outer loop
vertex 2 -6 -0.9999
vertex 15 -6 0.00009999999999998899
vertex 2 -6 0.00009999999999998899
endloop
endfacet
facet normal 0 1 0
outer loop
vertex 2 1 -0.9999
vertex 2 1 0.00009999999999998899
vertex 15 1 0.00009999999999998899
endloop
endfacet
facet normal 0 1 0
outer loop
vertex 2 1 -0.9999
vertex 15 1 0.00009999999999998899
vertex 15 1 -0.9999
endloop
endfacet
facet normal 0 0 -1
outer loop
vertex 2 -6 -0.9999
vertex 2 1 -0.9999
vertex 15 1 -0.9999
endloop
endfacet
facet normal 0 0 -1
outer loop
vertex 2 -6 -0.9999
vertex 15 1 -0.9999
vertex 15 -6 -0.9999
endloop
endfacet
facet normal 0 0 1
outer loop
vertex 15 -6 0.00009999999999998899
vertex 15 -5 0.00009999999999998899
vertex 2 -5 0.00009999999999998899
endloop
endfacet
facet normal 0 0 1
outer loop
vertex 15 -6 0.00009999999999998899
vertex 2 -5 0.00009999999999998899
vertex 2 -6 0.00009999999999998899
endloop
endfacet
facet normal 0 0 1
outer loop
vertex 15 -5 0.00009999999999998899
vertex 15 -4 0.00009999999999998899
vertex 13.0001 -4 0.00009999999999998899
endloop
endfacet
facet normal 0 0 1
outer loop
vertex 15 -5 0.00009999999999998899
vertex 13.0001 -4 0.00009999999999998899
vertex 13.0001 -5 0.00009999999999998899
endloop
endfacet
facet normal 0 0 1
outer loop
vertex 7 -3.9999000000000002 0.00009999999999998899
vertex 7 -3 0.00009999999999998899
vertex 5.0001 -3 0.00009999999999998899
endloop
endfacet
facet normal 0 0 1
outer loop
vertex 7 -3.9999000000000002 0.00009999999999998899
vertex 5.0001 -3 0.00009999999999998899
vertex 5.0001 -3.9999000000000002 0.00009999999999998899
endloop
endfacet
facet normal 0 0 1
outer loop
vertex 12 -3.9999000000000002 0.00009999999999998899
vertex 12 -3 0.00009999999999998899
vertex 10.0001 -3 0.00009999999999998899
endloop
endfacet
facet normal 0 0 1
outer loop
vertex 12 -3.9999000000000002 0.00009999999999998899
vertex 10.0001 -3 0.00009999999999998899
vertex 10.0001 -3.9999000000000002 0.00009999999999998899
endloop
endfacet
facet normal 0 0 1
outer loop
vertex 9 -2.9999000000000002 0.00009999999999998899
vertex 9 -1.9999 0.00009999999999998899
vertex 8.0001 -1.9999 0.00009999999999998899
endloop
endfacet
facet normal 0 0 1
outer loop
vertex 9 -2.9999000000000002 0.00009999999999998899
vertex 8.0001 -1.9999 0.00009999999999998899
vertex 8.0001 -2.9999000000000002 0.00009999999999998899
endloop
endfacet
facet normal 0 0 1
outer loop
vertex 15 -4 0.00009999999999998899
vertex 15 -1.9999 0.00009999999999998899
vertex 14.0001 -1.9999 0.00009999999999998899
endloop
endfacet
facet normal 0 0 1
outer loop
vertex 15 -4 0.00009999999999998899
vertex 14.0001 -1.9999 0.00009999999999998899
vertex 14.0001 -4 0.00009999999999998899
endloop
endfacet
facet normal 0 0 1
outer loop
vertex 3 -5 0.00009999999999998899
vertex 3 0.00009999999999976694 0.00009999999999998899
vertex 2 0.00009999999999976694 0.00009999999999998899
endloop
endfacet
facet normal 0 0 1
outer loop
vertex 3 -5 0.00009999999999998899
vertex 2 0.00009999999999976694 0.00009999999999998899
vertex 2 -5 0.00009999999999998899
endloop
endfacet
facet normal 0 0 1
outer loop
vertex 15 -1.9999 0.00009999999999998899
vertex 15 0.00009999999999976694 0.00009999999999998899
vertex 4.0001 0.00009999999999976694 0.00009999999999998899
endloop
endfacet
facet normal 0 0 1
outer loop
vertex 15 -1.9999 0.00009999999999998899
vertex 4.0001 0.00009999999999976694 0.00009999999999998899
vertex 4.0001 -1.9999 0.00009999999999998899
endloop
endfacet
facet normal 0 0 1
outer loop
vertex 15 0.00009999999999976694 0.00009999999999998899
vertex 15 1 0.00009999999999998899
vertex 2 1 0.00009999999999998899
endloop
endfacet
facet normal 0 0 1
outer loop
vertex 15 0.00009999999999976694 0.00009999999999998899
vertex 2 1 0.00009999999999998899
vertex 2 0.00009999999999976694 0.00009999999999998899
endloop
endfacet
facet normal -1 0 0
outer loop
vertex 3 0.00009999999999998899 1.0001
vertex 3 0.00009999999999976694 0.00009999999999998899
vertex 3 -5 0.00009999999999998899
endloop
endfacet
facet normal -1 0 0
outer loop
vertex 3 0.00009999999999998899 1.0001
vertex 3 -5 0.00009999999999998899
vertex 3 -5 1.0001
endloop
endfacet
facet normal 1 0 0
outer loop
vertex 4.0001 0.00009999999999976694 0.00009999999999998899
vertex 4.0001 0.00009999999999998899 1.0001
vertex 4.0001 -1.9999 1.0001
endloop
endfacet
facet normal 1 0 0
outer loop
vertex 4.0001 0.00009999999999976694 0.00009999999999998899
vertex 4.0001 -1.9999 1.0001
vertex 4.0001 -1.9999 0.00009999999999998899
endloop
endfacet
facet normal 0 1 0
outer loop
vertex 3 0.00009999999999976694 0.00009999999999998899
vertex 3 0.00009999999999998899 1.0001
vertex 4.0001 0.00009999999999998899 1.0001
endloop
endfacet
facet normal 0 1 0
outer loop
vertex 3 0.00009999999999976694 0.00009999999999998899
vertex 4.0001 0.00009999999999998899 1.0001
vertex 4.0001 0.00009999999999976694 0.00009999999999998899
endloop
endfacet
facet normal 0 0 1
outer loop
vertex 13.0001 -5 1.0001
vertex 13.0001 -4 1.0001
vertex 3 -4 1.0001
endloop
endfacet
facet normal 0 0 1
outer loop
vertex 13.0001 -5 1.0001
vertex 3 -4 1.0001
vertex 3 -5 1.0001
endloop
endfacet
facet normal 0 0 1
outer loop
vertex 14.0001 -4 1.0001
vertex 14.0001 -3.9999000000000002 1.0001
vertex 3 -3.9999000000000002 1.0001
endloop
endfacet
facet normal 0 0 1
outer loop
vertex 14.0001 -4 1.0001
vertex 3 -3.9999000000000002 1.0001
vertex 3 -4 1.0001
endloop
endfacet
facet normal 0 0 1
outer loop
vertex 5.0001 -3.9999000000000002 1.0001
vertex 5.0001 -3 1.0001
vertex 3 -3 1.0001
endloop
endfacet
facet normal 0 0 1
outer loop
vertex 5.0001 -3.9999000000000002 1.0001
vertex 3 -3 1.0001
vertex 3 -3.9999000000000002 1.0001
endloop
endfacet
facet normal 0 0 1
outer loop
vertex 10.0001 -3.9999000000000002 1.0001
vertex 10.0001 -3 1.0001
vertex 7 -3 1.0001
endloop
endfacet
facet normal 0 0 1
outer loop
vertex 10.0001 -3.9999000000000002 1.0001
vertex 7 -3 1.0001
vertex 7 -3.9999000000000002 1.0001
endloop
endfacet
facet normal 0 0 1
outer loop
vertex 14.0001 -3.9999000000000002 1.0001
vertex 14.0001 -3 1.0001
vertex 12 -3 1.0001
endloop
endfacet
facet normal 0 0 1
outer loop
vertex 14.0001 -3.9999000000000002 1.0001
vertex 12 -3 1.0001
vertex 12 -3.9999000000000002 1.0001
endloop
endfacet
facet normal 0 0 1
outer loop
vertex 14.0001 -3 1.0001
vertex 14.0001 -2.9999000000000002 1.0001
vertex 3 -2.9999000000000002 1.0001
endloop
endfacet
facet normal 0 0 1
outer loop
vertex 14.0001 -3 1.0001
vertex 3 -2.9999000000000002 1.0001
vertex 3 -3 1.0001
endloop
endfacet
facet normal 0 0 1
outer loop
vertex 8.0001 -2.9999000000000002 1.0001
vertex 8.0001 -1.9999 1.0001
vertex 3 -1.9999 1.0001
endloop
endfacet
facet normal 0 0 1
outer loop
vertex 8.0001 -2.9999000000000002 1.0001
vertex 3 -1.9999 1.0001
vertex 3 -2.9999000000000002 1.0001
endloop
endfacet
facet normal 0 0 1
outer loop
vertex 14.0001 -2.9999000000000002 1.0001
vertex 14.0001 -1.9999 1.0001
vertex 9 -1.9999 1.0001
endloop
endfacet
facet normal 0 0 1
outer loop
vertex 14.0001 -2.9999000000000002 1.0001
vertex 9 -1.9999 1.0001
vertex 9 -2.9999000000000002 1.0001
endloop
endfacet
facet normal 0 0 1
outer loop
vertex 4.0001 -1.9999 1.0001
vertex 4.0001 0.00009999999999998899 1.0001
vertex 3 0.00009999999999998899 1.0001
endloop
endfacet
facet normal 0 0 1
outer loop
vertex 4.0001 -1.9999 1.0001
vertex 3 0.00009999999999998899 1.0001
vertex 3 -1.9999 1.0001
endloop
endfacet
facet normal 0 -1 0
outer loop
vertex 7 -3 0.00009999999999998899
vertex 7 -3 1.0001
vertex 5.0001 -3 1.0001
endloop
endfacet
facet normal 0 -1 0
outer loop
vertex 7 -3 0.00009999999999998899
vertex 5.0001 -3 1.0001
vertex 5.0001 -3 0.00009999999999998899
endloop
endfacet
facet normal 0 -1 0
outer loop
vertex 12 -3 0.00009999999999998899
vertex 12 -3 1.0001
vertex 10.0001 -3 1.0001
endloop
endfacet
facet normal 0 -1 0
outer loop
vertex 12 -3 0.00009999999999998899
vertex 10.0001 -3 1.0001
vertex 10.0001 -3 0.00009999999999998899
endloop
endfacet
facet normal 0 1 0
outer loop
vertex 8.0001 -1.9999 1.0001
vertex 8.0001 -1.9999 0.00009999999999998899
vertex 4.0001 -1.9999 0.00009999999999998899
endloop
endfacet
facet normal 0 1 0
outer loop
vertex 8.0001 -1.9999 1.0001
vertex 4.0001 -1.9999 0.00009999999999998899
vertex 4.0001 -1.9999 1.0001
endloop
endfacet
facet normal 0 1 0
outer loop
vertex 14.0001 -1.9999 1.0001
vertex 14.0001 -1.9999 0.00009999999999998899
vertex 9 -1.9999 0.00009999999999998899
endloop
endfacet
facet normal 0 1 0
outer loop
vertex 14.0001 -1.9999 1.0001
vertex 9 -1.9999 0.00009999999999998899
vertex 9 -1.9999 1.0001
endloop
endfacet
facet normal 1 0 0
outer loop
vertex 8.0001 -1.9999 0.00009999999999998899
vertex 8.0001 -1.9999 1.0001
vertex 8.0001 -2.9999000000000002 1.0001
endloop
endfacet
facet normal 1 0 0
outer loop
vertex 8.0001 -1.9999 0.00009999999999998899
vertex 8.0001 -2.9999000000000002 1.0001
vertex 8.0001 -2.9999000000000002 0.00009999999999998899
endloop
endfacet
facet normal -1 0 0
outer loop
vertex 9 -2.9999000000000002 1.0001
vertex 9 -1.9999 1.0001
vertex 9 -1.9999 0.00009999999999998899
endloop
endfacet
facet normal -1 0 0
outer loop
vertex 9 -2.9999000000000002 1.0001
vertex 9 -1.9999 0.00009999999999998899
vertex 9 -2.9999000000000002 0.00009999999999998899
endloop
endfacet
facet normal 1 0 0
outer loop
vertex 14.0001 -1.9999 0.00009999999999998899
vertex 14.0001 -1.9999 1.0001
vertex 14.0001 -4 1.0001
endloop
endfacet
facet normal 1 0 0
outer loop
vertex 14.0001 -1.9999 0.00009999999999998899
vertex 14.0001 -4 1.0001
vertex 14.0001 -4 0.00009999999999998899
endloop
endfacet
facet normal 0 -1 0
outer loop
vertex 14.0001 -4 0.00009999999999998899
vertex 14.0001 -4 1.0001
vertex 13.0001 -4 1.0001
endloop
endfacet
facet normal 0 -1 0
outer loop
vertex 14.0001 -4 0.00009999999999998899
vertex 13.0001 -4 1.0001
vertex 13.0001 -4 0.00009999999999998899
endloop
endfacet
facet normal 1 0 0
outer loop
vertex 5.0001 -3 0.00009999999999998899
vertex 5.0001 -3 1.0001
vertex 5.0001 -3.9999000000000002 1.0001
endloop
endfacet
facet normal 1 0 0
outer loop
vertex 5.0001 -3 0.00009999999999998899
vertex 5.0001 -3.9999000000000002 1.0001
vertex 5.0001 -3.9999000000000002 0.00009999999999998899
endloop
endfacet
facet normal -1 0 0
outer loop
vertex 7 -3.9999000000000002 1.0001
vertex 7 -3 1.0001
vertex 7 -3 0.00009999999999998899
endloop
endfacet
facet normal -1 0 0
outer loop
vertex 7 -3.9999000000000002 1.0001
vertex 7 -3 0.00009999999999998899
vertex 7 -3.9999000000000002 0.00009999999999998899
endloop
endfacet
facet normal 0 1 0
outer loop
vertex 8.0001 -2.9999000000000002 1.0001
vertex 9 -2.9999000000000002 1.0001
vertex 9 -2.9999000000000002 0.00009999999999998899
endloop
endfacet
facet normal 0 1 0
outer loop
vertex 8.0001 -2.9999000000000002 1.0001
vertex 9 -2.9999000000000002 0.00009999999999998899
vertex 8.0001 -2.9999000000000002 0.00009999999999998899
endloop
endfacet
facet normal 1 0 0
outer loop
vertex 10.0001 -3 0.00009999999999998899
vertex 10.0001 -3 1.0001
vertex 10.0001 -3.9999000000000002 1.0001
endloop
endfacet
facet normal 1 0 0
outer loop
vertex 10.0001 -3 0.00009999999999998899
vertex 10.0001 -3.9999000000000002 1.0001
vertex 10.0001 -3.9999000000000002 0.00009999999999998899
endloop
endfacet
facet normal -1 0 0
outer loop
vertex 12 -3.9999000000000002 1.0001
vertex 12 -3 1.0001
vertex 12 -3 0.00009999999999998899
endloop
endfacet
facet normal -1 0 0
outer loop
vertex 12 -3.9999000000000002 1.0001
vertex 12 -3 0.00009999999999998899
vertex 12 -3.9999000000000002 0.00009999999999998899
endloop
endfacet
facet normal 0 -1 0
outer loop
vertex 13.0001 -5 0.00009999999999998899
vertex 13.0001 -5 1.0001
vertex 3 -5 1.0001
endloop
endfacet
facet normal 0 -1 0
outer loop
vertex 13.0001 -5 0.00009999999999998899
vertex 3 -5 1.0001
vertex 3 -5 0.00009999999999998899
endloop
endfacet
facet normal 0 1 0
outer loop
vertex 7 -3.9999000000000002 1.0001
vertex 7 -3.9999000000000002 0.00009999999999998899
vertex 5.0001 -3.9999000000000002 0.00009999999999998899
endloop
endfacet
facet normal 0 1 0
outer loop
vertex 7 -3.9999000000000002 1.0001
vertex 5.0001 -3.9999000000000002 0.00009999999999998899
vertex 5.0001 -3.9999000000000002 1.0001
endloop
endfacet
facet normal 0 1 0
outer loop
vertex 12 -3.9999000000000002 1.0001
vertex 12 -3.9999000000000002 0.00009999999999998899
vertex 10.0001 -3.9999000000000002 0.00009999999999998899
endloop
endfacet
facet normal 0 1 0
outer loop
vertex 12 -3.9999000000000002 1.0001
vertex 10.0001 -3.9999000000000002 0.00009999999999998899
vertex 10.0001 -3.9999000000000002 1.0001
endloop
endfacet
facet normal 1 0 0
outer loop
vertex 13.0001 -4 0.00009999999999998899
vertex 13.0001 -4 1.0001
vertex 13.0001 -5 1.0001
endloop
endfacet
facet normal 1 0 0
outer loop
vertex 13.0001 -4 0.00009999999999998899
vertex 13.0001 -5 1.0001
vertex 13.0001 -5 0.00009999999999998899
endloop
endfacet
endsolid csg.js
